HIERARCHY
ROOT Hips
{
 OFFSET 0.000000 0.000000 0.000000
 CHANNELS 6 Xposition Yposition Zposition Yrotation Xrotation Zrotation
 JOINT Chest
 {
  OFFSET 0.000000 11.395451 -0.039534
  CHANNELS 3 Yrotation Xrotation Zrotation
  JOINT Chest2
  {
   OFFSET 0.000000 9.398669 0.071813
   CHANNELS 3 Yrotation Xrotation Zrotation
   JOINT Chest3
   {
    OFFSET 0.000000 8.489801 0.000000
    CHANNELS 3 Yrotation Xrotation Zrotation
    JOINT Chest4
    {
     OFFSET 0.000000 8.489801 0.000000
     CHANNELS 3 Yrotation Xrotation Zrotation
     JOINT Neck
     {
      OFFSET 0.000000 12.404889 0.000000
      CHANNELS 3 Yrotation Xrotation Zrotation
      JOINT Head
      {
       OFFSET 0.000000 8.903270 0.092239
       CHANNELS 3 Yrotation Xrotation Zrotation
       End Site
       {
        OFFSET 0.000000 17.592497 0.007158
       }
      }
     }
     JOINT RightCollar
     {
      OFFSET -3.196775 6.966722 0.000000
      CHANNELS 3 Yrotation Xrotation Zrotation
      JOINT RightShoulder
      {
       OFFSET -15.955896 0.000000 0.000000
       CHANNELS 3 Yrotation Xrotation Zrotation
       JOINT RightElbow
       {
        OFFSET -24.792472 0.000000 0.000000
        CHANNELS 3 Yrotation Xrotation Zrotation
        JOINT RightWrist
        {
         OFFSET -20.900115 0.000000 0.025002
         CHANNELS 3 Yrotation Xrotation Zrotation
         End Site
         {
          OFFSET -16.056692 0.000000 0.000000
         }
        }
       }
      }
     }
     JOINT LeftCollar
     {
      OFFSET 3.196775 6.966722 0.000000
      CHANNELS 3 Yrotation Xrotation Zrotation
      JOINT LeftShoulder
      {
       OFFSET 15.955896 0.000000 0.000000
       CHANNELS 3 Yrotation Xrotation Zrotation
       JOINT LeftElbow
       {
        OFFSET 24.792472 0.000000 0.000000
        CHANNELS 3 Yrotation Xrotation Zrotation
        JOINT LeftWrist
        {
         OFFSET 20.900115 0.000000 0.025002
         CHANNELS 3 Yrotation Xrotation Zrotation
         End Site
         {
          OFFSET 16.056692 0.000000 0.000000
         }
        }
       }
      }
     }
    }
   }
  }
 }
 JOINT RightHip
 {
  OFFSET -9.568995 0.193718 0.019767
  CHANNELS 3 Yrotation Xrotation Zrotation
  JOINT RightKnee
  {
   OFFSET 0.000000 -56.649296 0.015402
   CHANNELS 3 Yrotation Xrotation Zrotation
   JOINT RightAnkle
   {
    OFFSET 0.000000 -41.365147 0.021264
    CHANNELS 3 Yrotation Xrotation Zrotation
    JOINT RightToe
    {
     OFFSET 0.000000 -7.465940 17.672538
     CHANNELS 3 Yrotation Xrotation Zrotation
     End Site
     {
      OFFSET 0.000000 -1.736315 7.837145
     }
    }
   }
  }
 }
 JOINT LeftHip
 {
  OFFSET 9.568995 0.193718 0.019767
  CHANNELS 3 Yrotation Xrotation Zrotation
  JOINT LeftKnee
  {
   OFFSET 0.000000 -56.649296 0.015402
   CHANNELS 3 Yrotation Xrotation Zrotation
   JOINT LeftAnkle
   {
    OFFSET 0.000000 -41.365147 0.021264
    CHANNELS 3 Yrotation Xrotation Zrotation
    JOINT LeftToe
    {
     OFFSET 0.000000 -7.465940 17.672538
     CHANNELS 3 Yrotation Xrotation Zrotation
     End Site
     {
      OFFSET 0.000000 -1.736315 7.837145
     }
    }
   }
  }
 }
}
MOTION
Frames: 5
Frame Time: 0.016667
178.894723 57.347342 -37.358354 -121.479022 -30.175788 -0.509369 -0.457802 14.249209 0.863971 -0.228564 6.332129 0.395077 -0.228564 6.332129 0.395077 -0.175357 4.748953 0.298382 2.056888 14.577970 -0.135698 3.916011 -9.080563 -1.048206 3.734538 10.348147 1.251307 17.207927 -37.985097 51.647127 47.881744 26.224734 2.148969 -11.926865 2.151534 7.291647 0.035977 8.364723 -6.177195 -7.297387 -25.426364 -53.437888 -61.335746 3.827252 -8.659321 9.004339 13.441631 1.985524 -28.584054 -50.776714 14.098798 -103.894919 88.282868 -114.003904 5.280155 -8.876009 -7.883793 0.000000 -0.000000 0.000000 12.994739 -53.466809 0.464538 -2.651056 82.092422 3.093946 -4.314350 0.051640 -0.773197 0.000000 0.000000 0.000000
178.894066 57.350276 -37.358743 -121.481750 -30.175215 -0.507110 -0.457386 14.249528 0.862583 -0.228338 6.332273 0.394453 -0.228338 6.332273 0.394453 -0.175181 4.749061 0.297912 2.056257 14.585783 -0.135419 3.914505 -9.066087 -1.047172 3.733088 10.351256 1.250486 17.211632 -37.987595 51.647508 47.883893 26.224517 2.149563 -11.931094 2.152111 7.292388 0.036346 8.367987 -6.173700 -7.294988 -25.426048 -53.436431 -61.341478 3.820713 -8.659226 9.010774 13.442017 1.986691 -28.585315 -50.774772 14.099274 -103.856546 88.286378 -113.967710 5.281188 -8.875971 -7.885080 0.000000 0.000000 0.000000 12.995469 -53.463982 0.466226 -2.659990 82.090061 3.083766 -4.308204 0.049875 -0.772507 0.000000 -0.000000 -0.000000
178.893364 57.353326 -37.359157 -121.483265 -30.175632 -0.505339 -0.458027 14.249855 0.861271 -0.228581 6.332419 0.393894 -0.228581 6.332419 0.393894 -0.175357 4.749170 0.297496 2.055115 14.594227 -0.134671 3.911843 -9.050469 -1.045040 3.733977 10.357395 1.248502 17.219430 -37.989243 51.644016 47.883691 26.219137 2.146532 -11.933925 2.153862 7.294253 0.036411 8.371884 -6.169818 -7.292590 -25.426179 -53.436751 -61.345774 3.819337 -8.656855 9.014389 13.441248 1.984947 -28.587281 -50.771699 14.099132 -103.780063 88.287648 -113.893828 5.284421 -8.875579 -7.886469 -0.000000 0.000000 -0.000000 12.993230 -53.460166 0.469074 -2.662486 82.087100 3.079716 -4.302423 0.050713 -0.773543 0.000000 -0.000000 -0.000000
178.892665 57.356399 -37.359666 -121.484152 -30.176551 -0.503765 -0.459197 14.250153 0.859880 -0.229054 6.332551 0.393317 -0.229054 6.332551 0.393317 -0.175706 4.749269 0.297069 2.053417 14.603445 -0.133381 3.907907 -9.033451 -1.041651 3.735839 10.365269 1.246208 17.229188 -37.990963 51.638701 47.882478 26.211446 2.142159 -11.936100 2.156062 7.296634 0.036075 8.376450 -6.165625 -7.289977 -25.426684 -53.437650 -61.349469 3.820027 -8.653550 9.016719 13.440005 1.982009 -28.589740 -50.768082 14.098772 -103.687117 88.287736 -113.803736 5.288744 -8.875036 -7.887983 -0.000000 0.000000 0.000000 12.989014 -53.455857 0.472794 -2.661122 82.083827 3.079205 -4.296764 0.053064 -0.775445 0.000000 0.000000 0.000000
178.892039 57.359408 -37.360351 -121.484538 -30.177356 -0.502350 -0.459964 14.250257 0.858281 -0.229343 6.332597 0.392636 -0.229343 6.332597 0.392636 -0.175915 4.749304 0.296562 2.051320 14.614590 -0.131351 3.902886 -9.012890 -1.036654 3.735467 10.370923 1.245474 17.236383 -37.992798 51.635408 47.882956 26.205593 2.141094 -11.938412 2.157517 7.298668 0.034372 8.382927 -6.160992 -7.286480 -25.429106 -53.438123 -61.353766 3.820267 -8.651188 9.019386 13.439322 1.979739 -28.592042 -50.764645 14.098255 -103.615646 88.288721 -113.734999 5.291989 -8.874795 -7.889002 0.000000 0.000000 0.000000 12.983761 -53.451638 0.476710 -2.658378 82.080530 3.080050 -4.291276 0.055291 -0.777252 0.000000 0.000000 0.000000
